#!OML:ASF F:\VICON\USERDATA\INSTALL\rory3\rory3.ASF
:FULLY-SPECIFIED
:DEGREES
1875
root 3.67672 17.0775 -1.11143 6.17943 25.2588 2.28866
lowerback 21.4222 -0.159159 -1.78419
upperback 7.6459 -0.315745 1.88289
thorax -3.62032 -0.136043 3.1055
lowerneck -20.2118 -6.20759 -12.1629
upperneck 10.0707 -6.39205 8.7449
head 7.03833 -2.80464 4.0572
rclavicle 2.66371e-014 -1.43125e-014
rhumerus -12.5991 19.7335 -89.6457
rradius 35.9882
rwrist 30.1628
rhand -22.644 -8.21654
rfingers 7.12502
rthumb 3.78689 -38.1626
lclavicle 2.66371e-014 -1.43125e-014
lhumerus -20.1796 -13.6903 92.2485
lradius 50.2323
lwrist -15.7022
lhand -6.73764 24.137
lfingers 7.12502
lthumb 19.1231 53.2169
rfemur -32.1473 -8.99168 25.9503
rtibia 49.5186
rfoot -20.9929 -2.14122
rtoes 7.79185
lfemur -29.9348 6.44009 -12.7455
ltibia 70.8841
lfoot -5.8397 -4.96034
ltoes -23.6677
1876
root 3.72135 17.0872 -1.05649 5.93857 24.3924 2.25779
lowerback 21.1228 -0.120333 -1.70745
upperback 7.49782 -0.254281 1.92364
thorax -3.63301 -0.107507 3.08797
lowerneck -20.5897 -6.35794 -12.1376
upperneck 10.2402 -6.58348 8.85822
head 7.17945 -2.87665 4.06121
rclavicle 4.77083e-015 -8.74653e-015
rhumerus -12.9079 19.4692 -89.61
rradius 35.9157
rwrist 30.0915
rhand -22.524 -8.03283
rfingers 7.12502
rthumb 3.90273 -37.9768
lclavicle 4.77083e-015 -8.74653e-015
lhumerus -20.4521 -13.8532 92.1865
lradius 50.0889
lwrist -15.058
lhand -7.07092 23.321
lfingers 7.12502
lthumb 18.8026 52.4323
rfemur -31.518 -8.64169 25.8246
rtibia 49.2884
rfoot -20.9469 -1.80861
rtoes 7.11829
lfemur -29.8001 6.53637 -12.834
ltibia 70.4938
lfoot -6.22228 -4.793
ltoes -24.9034
1877
root 3.7631 17.0929 -0.996099 5.67098 23.7028 2.15522
lowerback 20.7391 -0.124378 -1.56544
upperback 7.41266 -0.231703 1.99855
thorax -3.53177 -0.099217 3.07742
lowerneck -20.5821 -6.42756 -12.1285
upperneck 9.98683 -6.70623 9.09711
head 7.11823 -2.91266 4.12286
rclavicle 3.81667e-014 2.62396e-014
rhumerus -13.1409 19.2248 -89.5071
rradius 35.9772
rwrist 29.7228
rhand -22.3215 -7.78538
rfingers 7.12502
rthumb 4.09832 -37.7257
lclavicle 3.81667e-014 2.62396e-014
lhumerus -20.6586 -14.122 92.1063
lradius 49.9367
lwrist -14.5476
lhand -7.26272 23.2622
lfingers 7.12502
lthumb 18.6181 52.3912
rfemur -30.8992 -8.32786 25.7824
rtibia 49.0718
rfoot -20.8987 -1.55285
rtoes 6.1567
lfemur -29.6894 6.46172 -12.7866
ltibia 70.0286
lfoot -6.53722 -4.62068
ltoes -25.551
1878
root 3.80404 17.1038 -0.934587 5.33935 23.0568 1.97291
lowerback 20.4029 -0.163354 -1.42395
upperback 7.37156 -0.251552 2.13426
thorax -3.40325 -0.112646 3.14236
lowerneck -20.6731 -6.46922 -12.0534
upperneck 9.82758 -6.76884 9.13162
head 7.08648 -2.93347 4.11217
rclavicle 1.86858e-014 -5.1684e-014
rhumerus -13.2592 19.1593 -89.3609
rradius 35.9956
rwrist 29.1279
rhand -21.9244 -7.48909
rfingers 7.12502
rthumb 4.48179 -37.4217
lclavicle 1.86858e-014 -5.1684e-014
lhumerus -20.9557 -14.267 92.0549
lradius 50.0064
lwrist -14.073
lhand -8.49539 18.6092
lfingers 7.12502
lthumb 17.4321 47.8476
rfemur -30.2013 -7.99424 25.8181
rtibia 48.8217
rfoot -20.9905 -1.21204
rtoes 6.49528
lfemur -29.5783 6.29888 -12.6569
ltibia 69.4586
lfoot -6.76065 -4.42204
ltoes -25.3546
1879
root 3.84806 17.1227 -0.875746 5.17815 22.3529 2.01791
lowerback 20.0707 -0.182679 -1.43325
upperback 7.29178 -0.279475 2.20243
thorax -3.31647 -0.130187 3.223
lowerneck -20.7531 -6.50422 -12.0402
upperneck 9.62184 -6.81331 9.22715
head 7.04053 -2.9429 4.13448
rclavicle 3.1408e-014 2.38542e-015
rhumerus -13.4526 19.1385 -89.2236
rradius 36.05
rwrist 28.831
rhand -21.879 -7.52723
rfingers 7.12502
rthumb 4.52558 -37.4589
lclavicle 3.1408e-014 2.38542e-015
lhumerus -21.277 -14.3154 92.0473
lradius 50.0645
lwrist -13.6553
lhand -6.67764 22.2677
lfingers 7.12502
lthumb 19.1808 51.3419
rfemur -29.5855 -7.77312 25.6292
rtibia 48.5555
rfoot -20.9718 -0.832854
rtoes 6.76796
lfemur -29.561 6.07004 -12.8285
ltibia 68.735
lfoot -6.99252 -4.17747
ltoes -24.7546
1880
root 3.8925 17.1393 -0.821107 5.18032 21.6251 2.06688
lowerback 19.663 -0.207675 -1.39555
upperback 7.16469 -0.309141 2.22081
thorax -3.24178 -0.147277 3.22279
lowerneck -20.8237 -6.52566 -11.9465
upperneck 9.41022 -6.87184 9.38115
head 6.99277 -2.95121 4.1619
rclavicle -1.15295e-014 2.3059e-014
rhumerus -13.6545 18.9124 -89.1481
rradius 36.1661
rwrist 28.7824
rhand -21.8982 -7.6306
rfingers 7.12502
rthumb 4.50708 -37.5627
lclavicle -1.15295e-014 2.3059e-014
lhumerus -21.4799 -14.4634 91.9571
lradius 49.994
lwrist -13.323
lhand -5.92242 23.1888
lfingers 7.12502
lthumb 19.9069 52.1893
rfemur -29.1747 -7.45823 25.4405
rtibia 48.2981
rfoot -20.872 -0.46764
rtoes 6.7758
lfemur -29.7414 5.85406 -13.0241
ltibia 67.9314
lfoot -7.4114 -4.08277
ltoes -24.1582
1881
root 3.93433 17.1525 -0.765182 5.12458 20.9079 2.06247
lowerback 19.3526 -0.222647 -1.32485
upperback 7.02877 -0.32025 2.22863
thorax -3.22751 -0.153662 3.18975
lowerneck -20.9439 -6.5638 -11.845
upperneck 9.33756 -6.96548 9.58473
head 7.0044 -2.97088 4.1997
rclavicle -7.55382e-015 -9.54166e-015
rhumerus -13.8878 18.7438 -89.0819
rradius 36.3054
rwrist 28.4564
rhand -21.9883 -7.60089
rfingers 7.12502
rthumb 4.42011 -37.5348
lclavicle -7.55382e-015 -9.54166e-015
lhumerus -21.6908 -14.7409 91.8105
lradius 49.9466
lwrist -13.109
lhand -5.36639 23.0777
lfingers 7.12502
lthumb 20.4413 52.0217
rfemur -28.729 -7.00914 25.2996
rtibia 48.0595
rfoot -20.8934 -0.136989
rtoes 6.98002
lfemur -29.8494 5.68573 -13.1642
ltibia 67.1001
lfoot -7.9498 -4.0613
ltoes -24.3633
1882
root 3.97526 17.1656 -0.712024 5.13955 20.228 2.19347
lowerback 19.0979 -0.239927 -1.38579
upperback 6.87288 -0.358311 2.22558
thorax -3.25971 -0.173585 3.22706
lowerneck -21.0306 -6.59148 -11.8297
upperneck 9.23893 -7.02426 9.79735
head 7.00192 -2.97728 4.25949
rclavicle 4.17448e-014 -2.38542e-014
rhumerus -14.1276 18.6554 -89.0103
rradius 36.4103
rwrist 27.8833
rhand -22.2075 -7.50008
rfingers 7.12502
rthumb 4.20839 -37.4383
lclavicle 4.17448e-014 -2.38542e-014
lhumerus -21.9412 -14.987 91.7022
lradius 49.8725
lwrist -12.76
lhand -5.10046 22.7806
lfingers 7.12502
lthumb 20.6969 51.697
rfemur -28.3399 -6.58646 25.0187
rtibia 47.8244
rfoot -20.8961 0.072745
rtoes 6.47328
lfemur -29.9925 5.45054 -13.469
ltibia 66.2511
lfoot -8.37944 -3.92753
ltoes -24.328
1883
root 4.01535 17.1829 -0.661703 5.2083 19.602 2.29257
lowerback 18.7744 -0.283536 -1.42891
upperback 6.73226 -0.424517 2.26594
thorax -3.23702 -0.208279 3.30499
lowerneck -21.0918 -6.63525 -11.9342
upperneck 9.11791 -7.08248 10.0745
head 6.99535 -2.98311 4.36056
rclavicle -4.69132e-014 1.66979e-014
rhumerus -14.4069 18.6689 -88.9023
rradius 36.6401
rwrist 27.1871
rhand -22.4883 -7.43933
rfingers 7.12502
rthumb 3.93728 -37.3827
lclavicle -4.69132e-014 1.66979e-014
lhumerus -22.1454 -15.1513 91.6524
lradius 49.7261
lwrist -12.4454
lhand -5.03211 22.4304
lfingers 7.12502
lthumb 20.7626 51.3397
rfemur -28.0189 -6.26341 24.7939
rtibia 47.5578
rfoot -20.8555 0.225642
rtoes 6.01921
lfemur -30.2273 5.15051 -13.7415
ltibia 65.3397
lfoot -8.98547 -3.91224
ltoes -23.8813
1884
root 4.05813 17.2058 -0.60651 5.19652 18.8858 2.23798
lowerback 18.4267 -0.293219 -1.31129
upperback 6.63528 -0.418305 2.31219
thorax -3.16125 -0.206867 3.28108
lowerneck -21.1759 -6.69204 -11.9791
upperneck 8.99596 -7.1638 10.2999
head 6.9906 -3.0017 4.43113
rclavicle -7.55382e-015 -2.62396e-014
rhumerus -14.7511 18.6911 -88.7667
rradius 36.8972
rwrist 26.6813
rhand -23.2855 -7.27422
rfingers 7.12502
rthumb 3.16736 -37.2304
lclavicle -7.55382e-015 -2.62396e-014
lhumerus -22.3158 -15.3442 91.6043
lradius 49.6276
lwrist -12.2306
lhand -4.56028 22.394
lfingers 7.12502
lthumb 21.2158 51.253
rfemur -27.6154 -5.82812 24.704
rtibia 47.2566
rfoot -20.8771 0.560679
rtoes 7.12178
lfemur -30.3874 4.93298 -13.8587
ltibia 64.336
lfoot -9.40606 -4.09527
ltoes -24.059
1885
root 4.10492 17.2299 -0.54783 5.22804 18.05 2.29618
lowerback 17.9929 -0.262054 -1.29377
upperback 6.58543 -0.378997 2.31807
thorax -2.99108 -0.191332 3.26282
lowerneck -21.1834 -6.76905 -12.0612
upperneck 8.81354 -7.26919 10.5422
head 6.95917 -3.0342 4.51068
rclavicle -1.27222e-014 3.33958e-014
rhumerus -14.9691 18.4357 -88.6134
rradius 37.058
rwrist 26.5318
rhand -24.2339 -7.14961
rfingers 7.12502
rthumb 2.25147 -37.1175
lclavicle -1.27222e-014 3.33958e-014
lhumerus -22.4417 -15.5592 91.5724
lradius 49.5487
lwrist -11.8502
lhand -4.10479 22.2073
lfingers 7.12502
lthumb 21.6533 51.0165
rfemur -27.2036 -5.26827 24.4564
rtibia 46.9368
rfoot -20.8086 0.927646
rtoes 8.36759
lfemur -30.4964 4.76829 -14.1115
ltibia 63.2433
lfoot -9.28286 -4.27267
ltoes -23.6977
1886
root 4.14971 17.2529 -0.491323 5.43427 17.284 2.56076
lowerback 17.5214 -0.223878 -1.47296
upperback 6.49138 -0.363919 2.29002
thorax -2.84408 -0.188647 3.32577
lowerneck -21.1469 -6.83473 -12.1076
upperneck 8.63407 -7.36273 10.7102
head 6.91581 -3.06768 4.56152
rclavicle -9.93923e-015 -2.06736e-014
rhumerus -15.1201 17.8595 -88.4442
rradius 37.2842
rwrist 26.232
rhand -24.2576 -7.07153
rfingers 7.12502
rthumb 2.22862 -37.0396
lclavicle -9.93923e-015 -2.06736e-014
lhumerus -22.616 -15.9082 91.568
lradius 49.4705
lwrist -11.2999
lhand -3.89095 21.6789
lfingers 7.12502
lthumb 21.8587 50.4643
rfemur -26.9309 -4.8006 24.005
rtibia 46.6059
rfoot -20.6007 1.229
rtoes 8.03398
lfemur -30.7321 4.45056 -14.5754
ltibia 62.0863
lfoot -9.45642 -4.11846
ltoes -26.6278
1887
root 4.18954 17.2721 -0.438218 5.54645 16.567 2.63019
lowerback 17.2575 -0.180363 -1.53381
upperback 6.32212 -0.318598 2.31855
thorax -2.88786 -0.166821 3.37959
lowerneck -21.0395 -6.87139 -12.1004
upperneck 8.51869 -7.43651 10.8241
head 6.87539 -3.09661 4.58941
rclavicle 3.06128e-014 3.97569e-015
rhumerus -15.4424 17.4562 -88.3136
rradius 37.6411
rwrist 25.6674
rhand -23.638 -7.09436
rfingers 7.12502
rthumb 2.827 -37.0554
lclavicle 3.06128e-014 3.97569e-015
lhumerus -22.9965 -16.2208 91.6372
lradius 49.4897
lwrist -10.751
lhand -3.62444 21.2617
lfingers 7.12502
lthumb 22.1146 50.017
rfemur -26.6425 -4.35686 23.7893
rtibia 46.2732
rfoot -20.465 1.40996
rtoes 7.07019
lfemur -30.9796 4.14416 -14.7958
ltibia 60.8804
lfoot -9.28735 -3.66461
ltoes -27.7879
1888
root 4.22922 17.2923 -0.385833 5.55924 15.8282 2.60604
lowerback 17.0353 -0.167729 -1.49996
upperback 6.22464 -0.298042 2.34705
thorax -2.87618 -0.157483 3.38421
lowerneck -20.9302 -6.89326 -12.1168
upperneck 8.37217 -7.48871 10.9866
head 6.82552 -3.11231 4.64046
rclavicle -9.93923e-015 7.95139e-016
rhumerus -15.703 17.3231 -88.2066
rradius 37.8925
rwrist 25.2487
rhand -23.4987 -6.97172
rfingers 7.12502
rthumb 2.96153 -36.9309
lclavicle -9.93923e-015 7.95139e-016
lhumerus -23.321 -16.3092 91.6585
lradius 49.5829
lwrist -10.2441
lhand -3.20758 20.8939
lfingers 7.12502
lthumb 22.5147 49.6013
rfemur -26.2755 -3.84397 23.6546
rtibia 45.9164
rfoot -20.4146 1.63244
rtoes 7.13535
lfemur -31.1642 3.85081 -14.899
ltibia 59.6218
lfoot -9.34443 -3.20942
ltoes -28.2514
